<?xml version="1.0" encoding="utf-8" standalone="no"?>
<!DOCTYPE svg PUBLIC "-//W3C//DTD SVG 1.1//EN"
  "http://www.w3.org/Graphics/SVG/1.1/DTD/svg11.dtd">
<!-- Created with matplotlib (https://matplotlib.org/) -->
<svg height="288pt" version="1.1" viewBox="0 0 432 288" width="432pt" xmlns="http://www.w3.org/2000/svg" xmlns:xlink="http://www.w3.org/1999/xlink">
 <metadata>
  <rdf:RDF xmlns:cc="http://creativecommons.org/ns#" xmlns:dc="http://purl.org/dc/elements/1.1/" xmlns:rdf="http://www.w3.org/1999/02/22-rdf-syntax-ns#">
   <cc:Work>
    <dc:type rdf:resource="http://purl.org/dc/dcmitype/StillImage"/>
    <dc:date>2021-08-28T16:55:18.473314</dc:date>
    <dc:format>image/svg+xml</dc:format>
    <dc:creator>
     <cc:Agent>
      <dc:title>Matplotlib v3.3.4, https://matplotlib.org/</dc:title>
     </cc:Agent>
    </dc:creator>
   </cc:Work>
  </rdf:RDF>
 </metadata>
 <defs>
  <style type="text/css">*{stroke-linecap:butt;stroke-linejoin:round;}</style>
 </defs>
 <g id="figure_1">
  <g id="patch_1">
   <path d="M 0 288 
L 432 288 
L 432 0 
L 0 0 
z
" style="fill:none;"/>
  </g>
  <g id="axes_1">
   <g id="patch_2">
    <path d="M 54 252 
L 388.8 252 
L 388.8 34.56 
L 54 34.56 
z
" style="fill:#ffffff;"/>
   </g>
   <g id="matplotlib.axis_1">
    <g id="xtick_1">
     <g id="line2d_1">
      <defs>
       <path d="M 0 0 
L 0 3.5 
" id="m9c72ea220e" style="stroke:#000000;stroke-width:0.8;"/>
      </defs>
      <g>
       <use style="stroke:#000000;stroke-width:0.8;" x="64.387013" xlink:href="#m9c72ea220e" y="252"/>
      </g>
     </g>
     <g id="text_1">
      <!-- 0 -->
      <g transform="translate(59.806013 269.94175)scale(0.144 -0.144)">
       <defs>
        <path d="M 31.78125 66.40625 
Q 24.171875 66.40625 20.328125 58.90625 
Q 16.5 51.421875 16.5 36.375 
Q 16.5 21.390625 20.328125 13.890625 
Q 24.171875 6.390625 31.78125 6.390625 
Q 39.453125 6.390625 43.28125 13.890625 
Q 47.125 21.390625 47.125 36.375 
Q 47.125 51.421875 43.28125 58.90625 
Q 39.453125 66.40625 31.78125 66.40625 
z
M 31.78125 74.21875 
Q 44.046875 74.21875 50.515625 64.515625 
Q 56.984375 54.828125 56.984375 36.375 
Q 56.984375 17.96875 50.515625 8.265625 
Q 44.046875 -1.421875 31.78125 -1.421875 
Q 19.53125 -1.421875 13.0625 8.265625 
Q 6.59375 17.96875 6.59375 36.375 
Q 6.59375 54.828125 13.0625 64.515625 
Q 19.53125 74.21875 31.78125 74.21875 
z
" id="DejaVuSans-48"/>
       </defs>
       <use xlink:href="#DejaVuSans-48"/>
      </g>
     </g>
    </g>
    <g id="xtick_2">
     <g id="line2d_2">
      <g>
       <use style="stroke:#000000;stroke-width:0.8;" x="112.698701" xlink:href="#m9c72ea220e" y="252"/>
      </g>
     </g>
     <g id="text_2">
      <!-- 10 -->
      <g transform="translate(103.536701 269.94175)scale(0.144 -0.144)">
       <defs>
        <path d="M 12.40625 8.296875 
L 28.515625 8.296875 
L 28.515625 63.921875 
L 10.984375 60.40625 
L 10.984375 69.390625 
L 28.421875 72.90625 
L 38.28125 72.90625 
L 38.28125 8.296875 
L 54.390625 8.296875 
L 54.390625 0 
L 12.40625 0 
z
" id="DejaVuSans-49"/>
       </defs>
       <use xlink:href="#DejaVuSans-49"/>
       <use x="63.623047" xlink:href="#DejaVuSans-48"/>
      </g>
     </g>
    </g>
    <g id="xtick_3">
     <g id="line2d_3">
      <g>
       <use style="stroke:#000000;stroke-width:0.8;" x="161.01039" xlink:href="#m9c72ea220e" y="252"/>
      </g>
     </g>
     <g id="text_3">
      <!-- 20 -->
      <g transform="translate(151.84839 269.94175)scale(0.144 -0.144)">
       <defs>
        <path d="M 19.1875 8.296875 
L 53.609375 8.296875 
L 53.609375 0 
L 7.328125 0 
L 7.328125 8.296875 
Q 12.9375 14.109375 22.625 23.890625 
Q 32.328125 33.6875 34.8125 36.53125 
Q 39.546875 41.84375 41.421875 45.53125 
Q 43.3125 49.21875 43.3125 52.78125 
Q 43.3125 58.59375 39.234375 62.25 
Q 35.15625 65.921875 28.609375 65.921875 
Q 23.96875 65.921875 18.8125 64.3125 
Q 13.671875 62.703125 7.8125 59.421875 
L 7.8125 69.390625 
Q 13.765625 71.78125 18.9375 73 
Q 24.125 74.21875 28.421875 74.21875 
Q 39.75 74.21875 46.484375 68.546875 
Q 53.21875 62.890625 53.21875 53.421875 
Q 53.21875 48.921875 51.53125 44.890625 
Q 49.859375 40.875 45.40625 35.40625 
Q 44.1875 33.984375 37.640625 27.21875 
Q 31.109375 20.453125 19.1875 8.296875 
z
" id="DejaVuSans-50"/>
       </defs>
       <use xlink:href="#DejaVuSans-50"/>
       <use x="63.623047" xlink:href="#DejaVuSans-48"/>
      </g>
     </g>
    </g>
    <g id="xtick_4">
     <g id="line2d_4">
      <g>
       <use style="stroke:#000000;stroke-width:0.8;" x="209.322078" xlink:href="#m9c72ea220e" y="252"/>
      </g>
     </g>
     <g id="text_4">
      <!-- 30 -->
      <g transform="translate(200.160078 269.94175)scale(0.144 -0.144)">
       <defs>
        <path d="M 40.578125 39.3125 
Q 47.65625 37.796875 51.625 33 
Q 55.609375 28.21875 55.609375 21.1875 
Q 55.609375 10.40625 48.1875 4.484375 
Q 40.765625 -1.421875 27.09375 -1.421875 
Q 22.515625 -1.421875 17.65625 -0.515625 
Q 12.796875 0.390625 7.625 2.203125 
L 7.625 11.71875 
Q 11.71875 9.328125 16.59375 8.109375 
Q 21.484375 6.890625 26.8125 6.890625 
Q 36.078125 6.890625 40.9375 10.546875 
Q 45.796875 14.203125 45.796875 21.1875 
Q 45.796875 27.640625 41.28125 31.265625 
Q 36.765625 34.90625 28.71875 34.90625 
L 20.21875 34.90625 
L 20.21875 43.015625 
L 29.109375 43.015625 
Q 36.375 43.015625 40.234375 45.921875 
Q 44.09375 48.828125 44.09375 54.296875 
Q 44.09375 59.90625 40.109375 62.90625 
Q 36.140625 65.921875 28.71875 65.921875 
Q 24.65625 65.921875 20.015625 65.03125 
Q 15.375 64.15625 9.8125 62.3125 
L 9.8125 71.09375 
Q 15.4375 72.65625 20.34375 73.4375 
Q 25.25 74.21875 29.59375 74.21875 
Q 40.828125 74.21875 47.359375 69.109375 
Q 53.90625 64.015625 53.90625 55.328125 
Q 53.90625 49.265625 50.4375 45.09375 
Q 46.96875 40.921875 40.578125 39.3125 
z
" id="DejaVuSans-51"/>
       </defs>
       <use xlink:href="#DejaVuSans-51"/>
       <use x="63.623047" xlink:href="#DejaVuSans-48"/>
      </g>
     </g>
    </g>
    <g id="xtick_5">
     <g id="line2d_5">
      <g>
       <use style="stroke:#000000;stroke-width:0.8;" x="257.633766" xlink:href="#m9c72ea220e" y="252"/>
      </g>
     </g>
     <g id="text_5">
      <!-- 40 -->
      <g transform="translate(248.471766 269.94175)scale(0.144 -0.144)">
       <defs>
        <path d="M 37.796875 64.3125 
L 12.890625 25.390625 
L 37.796875 25.390625 
z
M 35.203125 72.90625 
L 47.609375 72.90625 
L 47.609375 25.390625 
L 58.015625 25.390625 
L 58.015625 17.1875 
L 47.609375 17.1875 
L 47.609375 0 
L 37.796875 0 
L 37.796875 17.1875 
L 4.890625 17.1875 
L 4.890625 26.703125 
z
" id="DejaVuSans-52"/>
       </defs>
       <use xlink:href="#DejaVuSans-52"/>
       <use x="63.623047" xlink:href="#DejaVuSans-48"/>
      </g>
     </g>
    </g>
    <g id="xtick_6">
     <g id="line2d_6">
      <g>
       <use style="stroke:#000000;stroke-width:0.8;" x="305.945455" xlink:href="#m9c72ea220e" y="252"/>
      </g>
     </g>
     <g id="text_6">
      <!-- 50 -->
      <g transform="translate(296.783455 269.94175)scale(0.144 -0.144)">
       <defs>
        <path d="M 10.796875 72.90625 
L 49.515625 72.90625 
L 49.515625 64.59375 
L 19.828125 64.59375 
L 19.828125 46.734375 
Q 21.96875 47.46875 24.109375 47.828125 
Q 26.265625 48.1875 28.421875 48.1875 
Q 40.625 48.1875 47.75 41.5 
Q 54.890625 34.8125 54.890625 23.390625 
Q 54.890625 11.625 47.5625 5.09375 
Q 40.234375 -1.421875 26.90625 -1.421875 
Q 22.3125 -1.421875 17.546875 -0.640625 
Q 12.796875 0.140625 7.71875 1.703125 
L 7.71875 11.625 
Q 12.109375 9.234375 16.796875 8.0625 
Q 21.484375 6.890625 26.703125 6.890625 
Q 35.15625 6.890625 40.078125 11.328125 
Q 45.015625 15.765625 45.015625 23.390625 
Q 45.015625 31 40.078125 35.4375 
Q 35.15625 39.890625 26.703125 39.890625 
Q 22.75 39.890625 18.8125 39.015625 
Q 14.890625 38.140625 10.796875 36.28125 
z
" id="DejaVuSans-53"/>
       </defs>
       <use xlink:href="#DejaVuSans-53"/>
       <use x="63.623047" xlink:href="#DejaVuSans-48"/>
      </g>
     </g>
    </g>
    <g id="xtick_7">
     <g id="line2d_7">
      <g>
       <use style="stroke:#000000;stroke-width:0.8;" x="354.257143" xlink:href="#m9c72ea220e" y="252"/>
      </g>
     </g>
     <g id="text_7">
      <!-- 60 -->
      <g transform="translate(345.095143 269.94175)scale(0.144 -0.144)">
       <defs>
        <path d="M 33.015625 40.375 
Q 26.375 40.375 22.484375 35.828125 
Q 18.609375 31.296875 18.609375 23.390625 
Q 18.609375 15.53125 22.484375 10.953125 
Q 26.375 6.390625 33.015625 6.390625 
Q 39.65625 6.390625 43.53125 10.953125 
Q 47.40625 15.53125 47.40625 23.390625 
Q 47.40625 31.296875 43.53125 35.828125 
Q 39.65625 40.375 33.015625 40.375 
z
M 52.59375 71.296875 
L 52.59375 62.3125 
Q 48.875 64.0625 45.09375 64.984375 
Q 41.3125 65.921875 37.59375 65.921875 
Q 27.828125 65.921875 22.671875 59.328125 
Q 17.53125 52.734375 16.796875 39.40625 
Q 19.671875 43.65625 24.015625 45.921875 
Q 28.375 48.1875 33.59375 48.1875 
Q 44.578125 48.1875 50.953125 41.515625 
Q 57.328125 34.859375 57.328125 23.390625 
Q 57.328125 12.15625 50.6875 5.359375 
Q 44.046875 -1.421875 33.015625 -1.421875 
Q 20.359375 -1.421875 13.671875 8.265625 
Q 6.984375 17.96875 6.984375 36.375 
Q 6.984375 53.65625 15.1875 63.9375 
Q 23.390625 74.21875 37.203125 74.21875 
Q 40.921875 74.21875 44.703125 73.484375 
Q 48.484375 72.75 52.59375 71.296875 
z
" id="DejaVuSans-54"/>
       </defs>
       <use xlink:href="#DejaVuSans-54"/>
       <use x="63.623047" xlink:href="#DejaVuSans-48"/>
      </g>
     </g>
    </g>
    <g id="text_8">
     <!-- $i$ -->
     <g transform="translate(219.384 287.87825)scale(0.144 -0.144)">
      <defs>
       <path d="M 18.3125 75.984375 
L 27.296875 75.984375 
L 25.09375 64.59375 
L 16.109375 64.59375 
z
M 14.203125 54.6875 
L 23.1875 54.6875 
L 12.5 0 
L 3.515625 0 
z
" id="DejaVuSans-Oblique-105"/>
      </defs>
      <use transform="translate(0 0.015625)" xlink:href="#DejaVuSans-Oblique-105"/>
     </g>
    </g>
   </g>
   <g id="matplotlib.axis_2">
    <g id="ytick_1">
     <g id="line2d_8">
      <defs>
       <path d="M 0 0 
L -3.5 0 
" id="m3bf8c19e9d" style="stroke:#000000;stroke-width:0.8;"/>
      </defs>
      <g>
       <use style="stroke:#000000;stroke-width:0.8;" x="54" xlink:href="#m3bf8c19e9d" y="243.881669"/>
      </g>
     </g>
     <g id="text_9">
      <!-- 0 -->
      <g transform="translate(37.838 249.352544)scale(0.144 -0.144)">
       <use xlink:href="#DejaVuSans-48"/>
      </g>
     </g>
    </g>
    <g id="ytick_2">
     <g id="line2d_9">
      <g>
       <use style="stroke:#000000;stroke-width:0.8;" x="54" xlink:href="#m3bf8c19e9d" y="197.445928"/>
      </g>
     </g>
     <g id="text_10">
      <!-- 1 -->
      <g transform="translate(37.838 202.916803)scale(0.144 -0.144)">
       <use xlink:href="#DejaVuSans-49"/>
      </g>
     </g>
    </g>
    <g id="ytick_3">
     <g id="line2d_10">
      <g>
       <use style="stroke:#000000;stroke-width:0.8;" x="54" xlink:href="#m3bf8c19e9d" y="151.010188"/>
      </g>
     </g>
     <g id="text_11">
      <!-- 2 -->
      <g transform="translate(37.838 156.481063)scale(0.144 -0.144)">
       <use xlink:href="#DejaVuSans-50"/>
      </g>
     </g>
    </g>
    <g id="ytick_4">
     <g id="line2d_11">
      <g>
       <use style="stroke:#000000;stroke-width:0.8;" x="54" xlink:href="#m3bf8c19e9d" y="104.574448"/>
      </g>
     </g>
     <g id="text_12">
      <!-- 3 -->
      <g transform="translate(37.838 110.045323)scale(0.144 -0.144)">
       <use xlink:href="#DejaVuSans-51"/>
      </g>
     </g>
    </g>
    <g id="ytick_5">
     <g id="line2d_12">
      <g>
       <use style="stroke:#000000;stroke-width:0.8;" x="54" xlink:href="#m3bf8c19e9d" y="58.138708"/>
      </g>
     </g>
     <g id="text_13">
      <!-- 4 -->
      <g transform="translate(37.838 63.609583)scale(0.144 -0.144)">
       <use xlink:href="#DejaVuSans-52"/>
      </g>
     </g>
    </g>
    <g id="text_14">
     <!-- $T(i)=\lfloor2^{32}|\sin(i)|\rfloor$ -->
     <g transform="translate(30.382 203.832)rotate(-90)scale(0.144 -0.144)">
      <defs>
       <path d="M 5.90625 72.90625 
L 67.578125 72.90625 
L 66.015625 64.59375 
L 39.984375 64.59375 
L 27.484375 0 
L 17.578125 0 
L 30.078125 64.59375 
L 4.296875 64.59375 
z
" id="DejaVuSans-Oblique-84"/>
       <path d="M 31 75.875 
Q 24.46875 64.65625 21.28125 53.65625 
Q 18.109375 42.671875 18.109375 31.390625 
Q 18.109375 20.125 21.3125 9.0625 
Q 24.515625 -2 31 -13.1875 
L 23.1875 -13.1875 
Q 15.875 -1.703125 12.234375 9.375 
Q 8.59375 20.453125 8.59375 31.390625 
Q 8.59375 42.28125 12.203125 53.3125 
Q 15.828125 64.359375 23.1875 75.875 
z
" id="DejaVuSans-40"/>
       <path d="M 8.015625 75.875 
L 15.828125 75.875 
Q 23.140625 64.359375 26.78125 53.3125 
Q 30.421875 42.28125 30.421875 31.390625 
Q 30.421875 20.453125 26.78125 9.375 
Q 23.140625 -1.703125 15.828125 -13.1875 
L 8.015625 -13.1875 
Q 14.5 -2 17.703125 9.0625 
Q 20.90625 20.125 20.90625 31.390625 
Q 20.90625 42.671875 17.703125 53.65625 
Q 14.5 64.65625 8.015625 75.875 
z
" id="DejaVuSans-41"/>
       <path d="M 10.59375 45.40625 
L 73.1875 45.40625 
L 73.1875 37.203125 
L 10.59375 37.203125 
z
M 10.59375 25.484375 
L 73.1875 25.484375 
L 73.1875 17.1875 
L 10.59375 17.1875 
z
" id="DejaVuSans-61"/>
       <path d="M 8.59375 -13.1875 
L 8.59375 75.984375 
L 17.578125 75.984375 
L 17.578125 -6.203125 
L 29.296875 -6.203125 
L 29.296875 -13.1875 
z
" id="DejaVuSans-8970"/>
       <path d="M 21 76.421875 
L 21 -23.578125 
L 12.703125 -23.578125 
L 12.703125 76.421875 
z
" id="DejaVuSans-124"/>
       <path d="M 44.28125 53.078125 
L 44.28125 44.578125 
Q 40.484375 46.53125 36.375 47.5 
Q 32.28125 48.484375 27.875 48.484375 
Q 21.1875 48.484375 17.84375 46.4375 
Q 14.5 44.390625 14.5 40.28125 
Q 14.5 37.15625 16.890625 35.375 
Q 19.28125 33.59375 26.515625 31.984375 
L 29.59375 31.296875 
Q 39.15625 29.25 43.1875 25.515625 
Q 47.21875 21.78125 47.21875 15.09375 
Q 47.21875 7.46875 41.1875 3.015625 
Q 35.15625 -1.421875 24.609375 -1.421875 
Q 20.21875 -1.421875 15.453125 -0.5625 
Q 10.6875 0.296875 5.421875 2 
L 5.421875 11.28125 
Q 10.40625 8.6875 15.234375 7.390625 
Q 20.0625 6.109375 24.8125 6.109375 
Q 31.15625 6.109375 34.5625 8.28125 
Q 37.984375 10.453125 37.984375 14.40625 
Q 37.984375 18.0625 35.515625 20.015625 
Q 33.0625 21.96875 24.703125 23.78125 
L 21.578125 24.515625 
Q 13.234375 26.265625 9.515625 29.90625 
Q 5.8125 33.546875 5.8125 39.890625 
Q 5.8125 47.609375 11.28125 51.796875 
Q 16.75 56 26.8125 56 
Q 31.78125 56 36.171875 55.265625 
Q 40.578125 54.546875 44.28125 53.078125 
z
" id="DejaVuSans-115"/>
       <path d="M 9.421875 54.6875 
L 18.40625 54.6875 
L 18.40625 0 
L 9.421875 0 
z
M 9.421875 75.984375 
L 18.40625 75.984375 
L 18.40625 64.59375 
L 9.421875 64.59375 
z
" id="DejaVuSans-105"/>
       <path d="M 54.890625 33.015625 
L 54.890625 0 
L 45.90625 0 
L 45.90625 32.71875 
Q 45.90625 40.484375 42.875 44.328125 
Q 39.84375 48.1875 33.796875 48.1875 
Q 26.515625 48.1875 22.3125 43.546875 
Q 18.109375 38.921875 18.109375 30.90625 
L 18.109375 0 
L 9.078125 0 
L 9.078125 54.6875 
L 18.109375 54.6875 
L 18.109375 46.1875 
Q 21.34375 51.125 25.703125 53.5625 
Q 30.078125 56 35.796875 56 
Q 45.21875 56 50.046875 50.171875 
Q 54.890625 44.34375 54.890625 33.015625 
z
" id="DejaVuSans-110"/>
       <path d="M 30.421875 -13.1875 
L 9.71875 -13.1875 
L 9.71875 -6.203125 
L 21.4375 -6.203125 
L 21.4375 75.984375 
L 30.421875 75.984375 
z
" id="DejaVuSans-8971"/>
      </defs>
      <use transform="translate(0 0.765625)" xlink:href="#DejaVuSans-Oblique-84"/>
      <use transform="translate(61.083984 0.765625)" xlink:href="#DejaVuSans-40"/>
      <use transform="translate(100.097656 0.765625)" xlink:href="#DejaVuSans-Oblique-105"/>
      <use transform="translate(127.880859 0.765625)" xlink:href="#DejaVuSans-41"/>
      <use transform="translate(186.376953 0.765625)" xlink:href="#DejaVuSans-61"/>
      <use transform="translate(289.648438 0.765625)" xlink:href="#DejaVuSans-8970"/>
      <use transform="translate(328.662109 0.765625)" xlink:href="#DejaVuSans-50"/>
      <use transform="translate(393.242188 39.046875)scale(0.7)" xlink:href="#DejaVuSans-51"/>
      <use transform="translate(437.77832 39.046875)scale(0.7)" xlink:href="#DejaVuSans-50"/>
      <use transform="translate(485.048828 0.765625)" xlink:href="#DejaVuSans-124"/>
      <use transform="translate(518.740234 0.765625)" xlink:href="#DejaVuSans-115"/>
      <use transform="translate(570.839844 0.765625)" xlink:href="#DejaVuSans-105"/>
      <use transform="translate(598.623047 0.765625)" xlink:href="#DejaVuSans-110"/>
      <use transform="translate(662.001953 0.765625)" xlink:href="#DejaVuSans-40"/>
      <use transform="translate(701.015625 0.765625)" xlink:href="#DejaVuSans-Oblique-105"/>
      <use transform="translate(728.798828 0.765625)" xlink:href="#DejaVuSans-41"/>
      <use transform="translate(767.8125 0.765625)" xlink:href="#DejaVuSans-124"/>
      <use transform="translate(801.503906 0.765625)" xlink:href="#DejaVuSans-8971"/>
     </g>
    </g>
    <g id="text_15">
     <!-- 1e9 -->
     <g transform="translate(54 31.56)scale(0.144 -0.144)">
      <defs>
       <path d="M 56.203125 29.59375 
L 56.203125 25.203125 
L 14.890625 25.203125 
Q 15.484375 15.921875 20.484375 11.0625 
Q 25.484375 6.203125 34.421875 6.203125 
Q 39.59375 6.203125 44.453125 7.46875 
Q 49.3125 8.734375 54.109375 11.28125 
L 54.109375 2.78125 
Q 49.265625 0.734375 44.1875 -0.34375 
Q 39.109375 -1.421875 33.890625 -1.421875 
Q 20.796875 -1.421875 13.15625 6.1875 
Q 5.515625 13.8125 5.515625 26.8125 
Q 5.515625 40.234375 12.765625 48.109375 
Q 20.015625 56 32.328125 56 
Q 43.359375 56 49.78125 48.890625 
Q 56.203125 41.796875 56.203125 29.59375 
z
M 47.21875 32.234375 
Q 47.125 39.59375 43.09375 43.984375 
Q 39.0625 48.390625 32.421875 48.390625 
Q 24.90625 48.390625 20.390625 44.140625 
Q 15.875 39.890625 15.1875 32.171875 
z
" id="DejaVuSans-101"/>
       <path d="M 10.984375 1.515625 
L 10.984375 10.5 
Q 14.703125 8.734375 18.5 7.8125 
Q 22.3125 6.890625 25.984375 6.890625 
Q 35.75 6.890625 40.890625 13.453125 
Q 46.046875 20.015625 46.78125 33.40625 
Q 43.953125 29.203125 39.59375 26.953125 
Q 35.25 24.703125 29.984375 24.703125 
Q 19.046875 24.703125 12.671875 31.3125 
Q 6.296875 37.9375 6.296875 49.421875 
Q 6.296875 60.640625 12.9375 67.421875 
Q 19.578125 74.21875 30.609375 74.21875 
Q 43.265625 74.21875 49.921875 64.515625 
Q 56.59375 54.828125 56.59375 36.375 
Q 56.59375 19.140625 48.40625 8.859375 
Q 40.234375 -1.421875 26.421875 -1.421875 
Q 22.703125 -1.421875 18.890625 -0.6875 
Q 15.09375 0.046875 10.984375 1.515625 
z
M 30.609375 32.421875 
Q 37.25 32.421875 41.125 36.953125 
Q 45.015625 41.5 45.015625 49.421875 
Q 45.015625 57.28125 41.125 61.84375 
Q 37.25 66.40625 30.609375 66.40625 
Q 23.96875 66.40625 20.09375 61.84375 
Q 16.21875 57.28125 16.21875 49.421875 
Q 16.21875 41.5 20.09375 36.953125 
Q 23.96875 32.421875 30.609375 32.421875 
z
" id="DejaVuSans-57"/>
      </defs>
      <use xlink:href="#DejaVuSans-49"/>
      <use x="63.623047" xlink:href="#DejaVuSans-101"/>
      <use x="125.146484" xlink:href="#DejaVuSans-57"/>
     </g>
    </g>
   </g>
   <g id="line2d_13">
    <path clip-path="url(#p12980b679c)" d="M 69.218182 76.058708 
L 74.049351 62.531403 
L 78.880519 215.736696 
L 83.711688 92.94499 
L 88.542857 52.633825 
L 93.374026 188.155046 
L 98.205195 112.852271 
L 103.036364 46.564074 
L 107.867532 161.688764 
L 112.698701 135.382106 
L 117.52987 44.443636 
L 122.361039 136.867574 
L 127.192208 160.083561 
L 132.023377 46.314952 
L 136.854545 114.188271 
L 141.685714 186.462235 
L 146.516883 52.140567 
L 151.348052 94.104783 
L 156.179221 213.99016 
L 161.01039 61.803881 
L 165.841558 77.01908 
L 170.672727 242.116364 
L 175.503896 75.111483 
L 180.335065 63.273133 
L 185.166234 217.485437 
L 189.997403 91.797022 
L 194.828571 53.142067 
L 199.65974 189.852222 
L 204.490909 111.526536 
L 209.322078 46.828656 
L 214.153247 163.300406 
L 218.984416 133.905139 
L 223.815584 44.459262 
L 228.646753 138.361425 
L 233.477922 158.484923 
L 238.309091 46.081309 
L 243.14026 115.534433 
L 247.971429 184.773924 
L 252.802597 51.662331 
L 257.633766 95.276311 
L 262.464935 212.245966 
L 267.296104 61.090624 
L 272.127273 77.992526 
L 276.958442 240.351197 
L 281.78961 74.177482 
L 286.620779 64.029014 
L 291.451948 219.236247 
L 296.283117 90.66097 
L 301.114286 53.665253 
L 305.945455 191.553632 
L 310.776623 110.211172 
L 315.607792 47.108676 
L 320.438961 164.918362 
L 325.27013 132.436789 
L 330.101299 44.490511 
L 334.932468 139.863544 
L 339.763636 156.892976 
L 344.594805 45.863162 
L 349.425974 116.89065 
L 354.257143 183.090243 
L 359.088312 51.199155 
L 363.919481 96.459481 
L 368.750649 210.50425 
L 373.581818 60.391689 
" style="fill:none;stroke:#0000ff;stroke-linecap:square;stroke-width:1.5;"/>
    <defs>
     <path d="M 0 3 
C 0.795609 3 1.55874 2.683901 2.12132 2.12132 
C 2.683901 1.55874 3 0.795609 3 0 
C 3 -0.795609 2.683901 -1.55874 2.12132 -2.12132 
C 1.55874 -2.683901 0.795609 -3 0 -3 
C -0.795609 -3 -1.55874 -2.683901 -2.12132 -2.12132 
C -2.683901 -1.55874 -3 -0.795609 -3 0 
C -3 0.795609 -2.683901 1.55874 -2.12132 2.12132 
C -1.55874 2.683901 -0.795609 3 0 3 
z
" id="m076cc4c45b" style="stroke:#0000ff;"/>
    </defs>
    <g clip-path="url(#p12980b679c)">
     <use style="fill:#0000ff;stroke:#0000ff;" x="69.218182" xlink:href="#m076cc4c45b" y="76.058708"/>
     <use style="fill:#0000ff;stroke:#0000ff;" x="74.049351" xlink:href="#m076cc4c45b" y="62.531403"/>
     <use style="fill:#0000ff;stroke:#0000ff;" x="78.880519" xlink:href="#m076cc4c45b" y="215.736696"/>
     <use style="fill:#0000ff;stroke:#0000ff;" x="83.711688" xlink:href="#m076cc4c45b" y="92.94499"/>
     <use style="fill:#0000ff;stroke:#0000ff;" x="88.542857" xlink:href="#m076cc4c45b" y="52.633825"/>
     <use style="fill:#0000ff;stroke:#0000ff;" x="93.374026" xlink:href="#m076cc4c45b" y="188.155046"/>
     <use style="fill:#0000ff;stroke:#0000ff;" x="98.205195" xlink:href="#m076cc4c45b" y="112.852271"/>
     <use style="fill:#0000ff;stroke:#0000ff;" x="103.036364" xlink:href="#m076cc4c45b" y="46.564074"/>
     <use style="fill:#0000ff;stroke:#0000ff;" x="107.867532" xlink:href="#m076cc4c45b" y="161.688764"/>
     <use style="fill:#0000ff;stroke:#0000ff;" x="112.698701" xlink:href="#m076cc4c45b" y="135.382106"/>
     <use style="fill:#0000ff;stroke:#0000ff;" x="117.52987" xlink:href="#m076cc4c45b" y="44.443636"/>
     <use style="fill:#0000ff;stroke:#0000ff;" x="122.361039" xlink:href="#m076cc4c45b" y="136.867574"/>
     <use style="fill:#0000ff;stroke:#0000ff;" x="127.192208" xlink:href="#m076cc4c45b" y="160.083561"/>
     <use style="fill:#0000ff;stroke:#0000ff;" x="132.023377" xlink:href="#m076cc4c45b" y="46.314952"/>
     <use style="fill:#0000ff;stroke:#0000ff;" x="136.854545" xlink:href="#m076cc4c45b" y="114.188271"/>
     <use style="fill:#0000ff;stroke:#0000ff;" x="141.685714" xlink:href="#m076cc4c45b" y="186.462235"/>
     <use style="fill:#0000ff;stroke:#0000ff;" x="146.516883" xlink:href="#m076cc4c45b" y="52.140567"/>
     <use style="fill:#0000ff;stroke:#0000ff;" x="151.348052" xlink:href="#m076cc4c45b" y="94.104783"/>
     <use style="fill:#0000ff;stroke:#0000ff;" x="156.179221" xlink:href="#m076cc4c45b" y="213.99016"/>
     <use style="fill:#0000ff;stroke:#0000ff;" x="161.01039" xlink:href="#m076cc4c45b" y="61.803881"/>
     <use style="fill:#0000ff;stroke:#0000ff;" x="165.841558" xlink:href="#m076cc4c45b" y="77.01908"/>
     <use style="fill:#0000ff;stroke:#0000ff;" x="170.672727" xlink:href="#m076cc4c45b" y="242.116364"/>
     <use style="fill:#0000ff;stroke:#0000ff;" x="175.503896" xlink:href="#m076cc4c45b" y="75.111483"/>
     <use style="fill:#0000ff;stroke:#0000ff;" x="180.335065" xlink:href="#m076cc4c45b" y="63.273133"/>
     <use style="fill:#0000ff;stroke:#0000ff;" x="185.166234" xlink:href="#m076cc4c45b" y="217.485437"/>
     <use style="fill:#0000ff;stroke:#0000ff;" x="189.997403" xlink:href="#m076cc4c45b" y="91.797022"/>
     <use style="fill:#0000ff;stroke:#0000ff;" x="194.828571" xlink:href="#m076cc4c45b" y="53.142067"/>
     <use style="fill:#0000ff;stroke:#0000ff;" x="199.65974" xlink:href="#m076cc4c45b" y="189.852222"/>
     <use style="fill:#0000ff;stroke:#0000ff;" x="204.490909" xlink:href="#m076cc4c45b" y="111.526536"/>
     <use style="fill:#0000ff;stroke:#0000ff;" x="209.322078" xlink:href="#m076cc4c45b" y="46.828656"/>
     <use style="fill:#0000ff;stroke:#0000ff;" x="214.153247" xlink:href="#m076cc4c45b" y="163.300406"/>
     <use style="fill:#0000ff;stroke:#0000ff;" x="218.984416" xlink:href="#m076cc4c45b" y="133.905139"/>
     <use style="fill:#0000ff;stroke:#0000ff;" x="223.815584" xlink:href="#m076cc4c45b" y="44.459262"/>
     <use style="fill:#0000ff;stroke:#0000ff;" x="228.646753" xlink:href="#m076cc4c45b" y="138.361425"/>
     <use style="fill:#0000ff;stroke:#0000ff;" x="233.477922" xlink:href="#m076cc4c45b" y="158.484923"/>
     <use style="fill:#0000ff;stroke:#0000ff;" x="238.309091" xlink:href="#m076cc4c45b" y="46.081309"/>
     <use style="fill:#0000ff;stroke:#0000ff;" x="243.14026" xlink:href="#m076cc4c45b" y="115.534433"/>
     <use style="fill:#0000ff;stroke:#0000ff;" x="247.971429" xlink:href="#m076cc4c45b" y="184.773924"/>
     <use style="fill:#0000ff;stroke:#0000ff;" x="252.802597" xlink:href="#m076cc4c45b" y="51.662331"/>
     <use style="fill:#0000ff;stroke:#0000ff;" x="257.633766" xlink:href="#m076cc4c45b" y="95.276311"/>
     <use style="fill:#0000ff;stroke:#0000ff;" x="262.464935" xlink:href="#m076cc4c45b" y="212.245966"/>
     <use style="fill:#0000ff;stroke:#0000ff;" x="267.296104" xlink:href="#m076cc4c45b" y="61.090624"/>
     <use style="fill:#0000ff;stroke:#0000ff;" x="272.127273" xlink:href="#m076cc4c45b" y="77.992526"/>
     <use style="fill:#0000ff;stroke:#0000ff;" x="276.958442" xlink:href="#m076cc4c45b" y="240.351197"/>
     <use style="fill:#0000ff;stroke:#0000ff;" x="281.78961" xlink:href="#m076cc4c45b" y="74.177482"/>
     <use style="fill:#0000ff;stroke:#0000ff;" x="286.620779" xlink:href="#m076cc4c45b" y="64.029014"/>
     <use style="fill:#0000ff;stroke:#0000ff;" x="291.451948" xlink:href="#m076cc4c45b" y="219.236247"/>
     <use style="fill:#0000ff;stroke:#0000ff;" x="296.283117" xlink:href="#m076cc4c45b" y="90.66097"/>
     <use style="fill:#0000ff;stroke:#0000ff;" x="301.114286" xlink:href="#m076cc4c45b" y="53.665253"/>
     <use style="fill:#0000ff;stroke:#0000ff;" x="305.945455" xlink:href="#m076cc4c45b" y="191.553632"/>
     <use style="fill:#0000ff;stroke:#0000ff;" x="310.776623" xlink:href="#m076cc4c45b" y="110.211172"/>
     <use style="fill:#0000ff;stroke:#0000ff;" x="315.607792" xlink:href="#m076cc4c45b" y="47.108676"/>
     <use style="fill:#0000ff;stroke:#0000ff;" x="320.438961" xlink:href="#m076cc4c45b" y="164.918362"/>
     <use style="fill:#0000ff;stroke:#0000ff;" x="325.27013" xlink:href="#m076cc4c45b" y="132.436789"/>
     <use style="fill:#0000ff;stroke:#0000ff;" x="330.101299" xlink:href="#m076cc4c45b" y="44.490511"/>
     <use style="fill:#0000ff;stroke:#0000ff;" x="334.932468" xlink:href="#m076cc4c45b" y="139.863544"/>
     <use style="fill:#0000ff;stroke:#0000ff;" x="339.763636" xlink:href="#m076cc4c45b" y="156.892976"/>
     <use style="fill:#0000ff;stroke:#0000ff;" x="344.594805" xlink:href="#m076cc4c45b" y="45.863162"/>
     <use style="fill:#0000ff;stroke:#0000ff;" x="349.425974" xlink:href="#m076cc4c45b" y="116.89065"/>
     <use style="fill:#0000ff;stroke:#0000ff;" x="354.257143" xlink:href="#m076cc4c45b" y="183.090243"/>
     <use style="fill:#0000ff;stroke:#0000ff;" x="359.088312" xlink:href="#m076cc4c45b" y="51.199155"/>
     <use style="fill:#0000ff;stroke:#0000ff;" x="363.919481" xlink:href="#m076cc4c45b" y="96.459481"/>
     <use style="fill:#0000ff;stroke:#0000ff;" x="368.750649" xlink:href="#m076cc4c45b" y="210.50425"/>
     <use style="fill:#0000ff;stroke:#0000ff;" x="373.581818" xlink:href="#m076cc4c45b" y="60.391689"/>
    </g>
   </g>
   <g id="patch_3">
    <path d="M 54 252 
L 54 34.56 
" style="fill:none;stroke:#000000;stroke-linecap:square;stroke-linejoin:miter;stroke-width:0.8;"/>
   </g>
   <g id="patch_4">
    <path d="M 388.8 252 
L 388.8 34.56 
" style="fill:none;stroke:#000000;stroke-linecap:square;stroke-linejoin:miter;stroke-width:0.8;"/>
   </g>
   <g id="patch_5">
    <path d="M 54 252 
L 388.8 252 
" style="fill:none;stroke:#000000;stroke-linecap:square;stroke-linejoin:miter;stroke-width:0.8;"/>
   </g>
   <g id="patch_6">
    <path d="M 54 34.56 
L 388.8 34.56 
" style="fill:none;stroke:#000000;stroke-linecap:square;stroke-linejoin:miter;stroke-width:0.8;"/>
   </g>
  </g>
 </g>
 <defs>
  <clipPath id="p12980b679c">
   <rect height="217.44" width="334.8" x="54" y="34.56"/>
  </clipPath>
 </defs>
</svg>
